<svg width="90" height="30" viewBox="0 0 90 30" fill="none" xmlns="http://www.w3.org/2000/svg">
<path fill-rule="evenodd" clip-rule="evenodd" d="M39.1461 0.896842C39.178 0.951452 39.9332 1.95041 40.8242 3.11686L42.4442 5.23755L43.9382 5.24034C44.76 5.24185 45.4306 5.21884 45.4285 5.18932C45.4264 5.15979 44.9628 4.16807 44.3982 2.98557L43.3717 0.835567L41.2297 0.816575C39.4211 0.800522 39.0969 0.813063 39.1461 0.896842ZM6.66022 6.46642C3.98535 6.82611 2.07498 8.13747 0.93932 10.3935C0.623384 11.0213 0.181233 12.3725 0.0100166 13.2339C-0.277839 14.6822 -0.323919 15.3624 -0.320103 18.1072C-0.316863 20.479 -0.299655 20.8663 -0.157023 21.7765C0.138105 23.6602 0.617408 25.1208 1.30861 26.2426C1.80771 27.0527 2.80369 28.0451 3.55897 28.4848C5.83734 29.8111 9.51279 29.9699 11.7722 28.8396C13.216 28.1173 14.4722 26.7587 15.2773 25.0484C15.5435 24.4829 16.0803 23.0164 16.0368 22.9732C15.9829 22.9195 11.7009 22.2262 11.6183 22.2578C11.5644 22.2784 11.5202 22.3409 11.5202 22.3968C11.5202 22.6065 11.1337 23.6456 10.8574 24.1785C10.6998 24.4826 10.4465 24.8719 10.2946 25.0437C9.35122 26.1105 7.30592 26.2301 5.90703 25.3002C5.16911 24.8097 4.59872 23.9014 4.33981 22.8045C4.22511 22.3187 4.21222 21.8285 4.21222 17.9639C4.21222 13.7503 4.21546 13.6519 4.37185 13.0683C4.87556 11.189 5.99696 10.1935 7.75326 10.0667C9.59214 9.93386 10.6163 10.763 11.2098 12.8648C11.362 13.4039 11.4299 13.5497 11.5167 13.5243C11.578 13.5063 12.5649 13.2968 13.7098 13.0585C14.8548 12.8204 15.8087 12.6083 15.8297 12.5874C15.9135 12.504 15.5232 11.3946 15.1243 10.5822C14.0633 8.42134 12.5286 7.15807 10.2864 6.59986C9.59005 6.4265 7.52264 6.35046 6.66022 6.46642ZM18.3602 17.9579V29.1081H20.5562H22.7522V24.0197V18.9314L23.9222 18.9315H25.0922L27.4314 24.0198L29.7705 29.1081H32.1654C33.4825 29.1081 34.5602 29.0904 34.5602 29.0687C34.5602 29.0471 33.4871 26.7492 32.1756 23.9625C30.864 21.1756 29.7766 18.8461 29.7592 18.7856C29.7355 18.7034 29.8598 18.6338 30.2539 18.509C31.1635 18.221 31.7339 17.8813 32.3676 17.2506C33.1507 16.4711 33.56 15.6599 33.8519 14.3089C33.9729 13.7486 33.9718 11.5854 33.8502 11.0122C33.3282 8.55206 32.1006 7.42876 29.4482 6.98407C28.8788 6.88853 27.8929 6.86417 23.5622 6.83851L18.3602 6.80762V17.9579ZM36.9362 17.9635V29.1081H44.0642H51.1922V27.2447V25.3814H46.2602H41.3282V22.0847V18.7881H45.2882H49.2482V17.0322V15.2764H45.2882H41.3282V12.8761V10.4757L46.2422 10.4573L51.1562 10.4389V8.64723V6.85557L44.0462 6.83729L36.9362 6.81902V17.9635ZM53.9762 6.86754C53.9498 6.89377 53.9282 11.9086 53.9282 18.0117V29.1081H55.9082H57.8882L57.8948 20.1677L57.9013 11.2272L58.7862 14.7389C59.2729 16.6703 60.2818 20.6935 61.0283 23.6793L62.3854 29.1081H63.516C64.5315 29.1081 64.65 29.0953 64.6812 28.9827C64.7004 28.9136 65.715 24.8744 66.9361 20.0064L69.1562 11.1556L69.1745 20.1318L69.1928 29.1081H71.2447H73.2967L73.2785 17.9818L73.2602 6.85557H69.9559H66.6514L65.2039 12.9594C64.4077 16.3165 63.7393 19.08 63.7186 19.1005C63.6978 19.121 63.1519 16.9064 62.5053 14.1792C61.8587 11.4519 61.2004 8.68041 61.0423 8.02015L60.755 6.81973H57.3896C55.5387 6.81973 54.0026 6.84123 53.9762 6.86754ZM76.1523 6.86754C76.1258 6.89377 76.1042 11.9086 76.1042 18.0117V29.1081H83.2322H90.3602V27.2447V25.3814H85.4642H80.5682V22.0847V18.7881H84.4922H88.4162V17.0322V15.2764H84.4922H80.5682V12.8756V10.4747H85.4642H90.3602V8.64723V6.81973H83.2803C79.3862 6.81973 76.1786 6.84123 76.1523 6.86754ZM22.7522 12.8804V15.4293L25.3622 15.4066C27.9094 15.3845 27.9809 15.38 28.3322 15.219C29.1396 14.8491 29.4474 14.299 29.5028 13.127C29.5653 11.8046 29.2603 11.051 28.5094 10.6725C27.9736 10.4023 27.22 10.3342 24.7502 10.3326L22.7522 10.3314V12.8804Z" fill="#FDF0E6"/>
</svg>
