<svg xmlns="http://www.w3.org/2000/svg" id="Layer_1" data-name="Layer 1" viewBox="0 0 485.06 211.61"><defs><style> .cls-1 { fill: #FDF0E6; } </style></defs><g><path class="cls-1" d="M89.22,119.87c-6.82,23.93-21.14,35.16-41.29,35.16-26.73,0-45.48-13.9-45.48-58.73v-5.87c0-44.84,18.65-58.73,45.48-58.73,20.48,0,34.61,11.13,40.39,32.98l-23.65,4.97c-2.67-12.26-7.22-18.61-17.47-18.61-11.67,0-21.02,7.25-21.02,26.94v30.78c0,19.7,9.42,26.94,21.02,26.94,9.89,0,14.84-5.82,18.51-19.86l23.51,4.05h0Z"/><path class="cls-1" d="M162.01,152.52l-24.83-54.24h-12.48v54.24h-23.2V34.2h47.44c22.51,0,35.13,6.65,35.13,31.06,0,18.25-8.43,28.69-22.73,31.63l26.04,55.63h-25.38ZM124.7,79.89h20.67c10.25,0,15.32-2.37,15.32-13.59s-5.07-13.61-15.32-13.61h-20.67v27.2Z"/><path class="cls-1" d="M223.04,79.06h41.82v18.58h-41.82v35.08h52.01v19.79h-75.21V34.2h75.21v19.01h-52.01v25.85ZM233.72,1.93l11.13,23.46h-15.79L211.18,1.93h22.54Z"/><path class="cls-1" d="M346.47,152.52h-11.86l-23.97-96.54v96.54h-20.74V34.2h36.03l7.82,33.11,7.82,33.11,7.81-33.11,7.81-33.11h34.94v118.32h-21.64V55.98l-24.04,96.54Z"/><path class="cls-1" d="M430.59,79.06h41.82v18.58h-41.82v35.08h52.01v19.79h-75.21V34.2h75.21v19.01h-52.01v25.85Z"/></g><g><path class="cls-1" d="M102.67,209.68c-7.51,0-11.84-5.17-11.84-13.23s4.61-12.99,11.98-12.99c5.94,0,9.99,3.39,10.83,8.66h-4.75c-.94-3.53-3.32-4.68-6.11-4.68-3.84,0-6.77,3.14-6.77,9.01s2.93,9.25,6.6,9.25c3,0,5.48-1.36,6.29-4.78h4.75c-.66,5.1-4.89,8.76-10.96,8.76Z"/><path class="cls-1" d="M125.99,196.55c0-7.86,4.85-13.09,12.4-13.09s12.4,5.24,12.4,13.09-4.85,13.13-12.4,13.13-12.4-5.27-12.4-13.13ZM145.61,196.55c0-5.94-3.28-9.11-7.23-9.11s-7.23,3.18-7.23,9.11,3.28,9.15,7.23,9.15,7.23-3.21,7.23-9.15Z"/><path class="cls-1" d="M182.03,205.17v4.05h-17.32v-25.32h4.99v21.27h12.33Z"/><path class="cls-1" d="M211.97,205.17v4.05h-17.32v-25.32h4.99v21.27h12.33Z"/><path class="cls-1" d="M243.03,183.91v4.05h-13.44v6.29h12.71v4.05h-12.71v6.88h13.44v4.05h-18.44v-25.32h18.44Z"/><path class="cls-1" d="M267.39,209.68c-7.51,0-11.84-5.17-11.84-13.23s4.61-12.99,11.98-12.99c5.94,0,9.99,3.39,10.83,8.66h-4.75c-.94-3.53-3.32-4.68-6.11-4.68-3.84,0-6.77,3.14-6.77,9.01s2.93,9.25,6.6,9.25c3,0,5.48-1.36,6.29-4.78h4.75c-.66,5.1-4.89,8.76-10.96,8.76Z"/><path class="cls-1" d="M289.77,187.96v-4.05h20.6v4.05h-7.82v21.27h-4.99v-21.27h-7.79Z"/><path class="cls-1" d="M323.09,209.22v-25.32h4.99v25.32h-4.99Z"/><path class="cls-1" d="M352.06,202.97l5.87-19.06h5.31l-8.73,25.32h-5.1l-8.8-25.32h5.41l6.04,19.06Z"/><path class="cls-1" d="M394.23,183.91v4.05h-13.44v6.29h12.71v4.05h-12.71v6.88h13.44v4.05h-18.44v-25.32h18.44Z"/></g></svg>